<?xml version="1.0" encoding="utf-8"?>
<!-- Generator: Adobe Illustrator 27.5.0, SVG Export Plug-In . SVG Version: 6.00 Build 0)  -->
<svg version="1.1" id="UIUCTF_2023_Pwny" xmlns="http://www.w3.org/2000/svg" xmlns:xlink="http://www.w3.org/1999/xlink" x="0px"
	 y="0px" viewBox="0 0 256 256" style="enable-background:new 0 0 256 256;" xml:space="preserve">
<style type="text/css">
	.st0{fill:#01A5FF;}
	.st1{fill:#FFCC00;}
	.st2{fill:#65CB32;}
	.st3{fill:#FF3200;}
	.st4{fill:#030C05;stroke:#020803;stroke-width:2.5316;stroke-linejoin:round;}
</style>
<g id="Logo" transform="translate(126.01011,-102.34522)">
	<g id="Trails">
		<g id="Black_Trails">
			<path id="path3853-8-7-6-4-9-7-9" d="M-18.4,264.6c-1.9-1.9-7.8-7.7-11.8-11.3l1.9-6.3c4.1,3.6,10.1,9.5,11.9,11.3L-18.4,264.6z"
				/>
			<path id="path3849-5-6-6-8-8-6-8" d="M-21.2,223.2c4,3.5,9.9,9.2,11.8,11.3l3.2-10.6C-8,222-14,216.2-18,212.5L-21.2,223.2z"/>
			<path id="path3650-3-3-96-7-8-7-0" d="M-1.3,157.2c4,3.6,10,9.4,11.8,11.3l2.7-9c-1.8-1.9-7.8-7.7-11.8-11.4L-1.3,157.2z"/>
			<path id="path3722-5-0-0-6-3-9-4" d="M-28,296.5l-3.3,11.3c-1.8-1.9-7.8-7.6-11.9-11.1l3.5-11.4C-35.9,288.7-29.9,294.5-28,296.5
				L-28,296.5z"/>
			<path id="path9751-30-3-7-9" d="M-34,255.1c-1.7-1.7-7-6.9-10.6-10.1l1.7-5.8c3.6,3.3,9.1,8.6,10.8,10.3L-34,255.1z"/>
			<path id="path9755-2-0-5-0" d="M-35.6,214.6c3.6,3.2,9,8.3,10.6,10.1l2.9-9.5c-1.7-1.8-7-6.9-10.6-10.3L-35.6,214.6z"/>
			<path id="path9763-5-8-5-5" d="M-15.7,148.8c3.6,3.2,9,8.5,10.6,10.1l2.4-8.1c-1.7-1.7-7-6.9-10.6-10.3L-15.7,148.8z"/>
			<path id="path9765-9-9-6-5" d="M-43.8,287.8l-3.1,10.3c-1.7-1.8-7-6.8-10.6-10.1l3.1-10.3C-50.9,280.9-45.6,286-43.8,287.8
				L-43.8,287.8z"/>
			<path id="path9905-2-7-4-0" d="M-51.6,253.2c-1.5-1.5-6.4-6.3-9.6-9.1l1.5-5.1c3.3,2.9,8.2,7.7,9.6,9.2L-51.6,253.2z"/>
			<path id="path9909-4-0-8-1" d="M-52,213.5c3.2,2.8,8.1,7.6,9.6,9.1l2.6-8.6c-1.4-1.5-6.3-6.3-9.6-9.2L-52,213.5z"/>
			<path id="path9917-81-7-2-6" d="M-32.2,147.6c3.2,2.9,8.1,7.6,9.6,9.1l2.2-7.3c-1.5-1.5-6.4-6.3-9.6-9.2L-32.2,147.6z"/>
			<path id="path9919-2-3-4-0" d="M-61.7,286.7l-2.7,9.2c-1.5-1.5-6.4-6.2-9.6-9.1l2.8-9.2C-68,280.4-63.1,285.1-61.7,286.7z"/>
			<path id="path9949-6-2-3-2" d="M-70.2,258.3c-1.4-1.4-5.8-5.6-8.6-8.2l1.4-4.6c2.9,2.7,7.3,6.9,8.7,8.3L-70.2,258.3z"/>
			<path id="path9953-2-5-7-8" d="M-69.5,219.4c2.8,2.6,7.2,6.8,8.6,8.2l2.3-7.7c-1.3-1.4-5.8-5.6-8.6-8.3L-69.5,219.4z"/>
			<path id="path9961-1-6-4-8" d="M-49.8,153.6c2.9,2.6,7.3,6.8,8.6,8.2l2.1-6.5c-1.3-1.4-5.8-5.6-8.6-8.3L-49.8,153.6z"/>
			<path id="path9963-1-0-9-4" d="M-80.4,292.6l-2.4,8.2c-1.4-1.4-5.8-5.5-8.7-8.2l2.4-8.3C-86.2,286.9-81.8,291.2-80.4,292.6z"/>
			<path id="path9993-0-4-5-9" d="M-88,261.8c-1.3-1.3-5.1-5-7.7-7.3l1.3-4.1c2.7,2.4,6.7,6.3,7.8,7.4L-88,261.8z"/>
			<path id="path9997-4-7-4-8" d="M-86.4,223.6c2.6,2.3,6.5,6,7.7,7.4l2.2-6.9c-1.2-1.3-5.1-5.1-7.8-7.4L-86.4,223.6z"/>
			<path id="path10005-8-2-1-3" d="M-66.7,157.9c2.6,2.3,6.5,6.2,7.8,7.4l1.8-5.9c-1.2-1.3-5.1-5.1-7.8-7.4L-66.7,157.9z"/>
			<path id="path10007-6-4-6-4" d="M-98.4,296.7l-2.2,7.4c-1.2-1.3-5.1-5-7.8-7.3l2.2-7.4C-103.6,291.7-99.6,295.4-98.4,296.7
				L-98.4,296.7z"/>
			<path id="path10037-7-9-2-4" d="M-106.3,268c-1.2-1.2-4.6-4.5-6.9-6.7l1.2-3.7c2.4,2.2,6,5.6,7,6.7L-106.3,268z"/>
			<path id="path10041-4-8-4-9" d="M-103.9,230.3c2.3,2.1,5.9,5.5,6.9,6.7l1.9-6.3c-1-1.2-4.6-4.6-6.9-6.7L-103.9,230.3z"/>
			<path id="path10049-9-7-1-1" d="M-84.1,164.7c2.3,2.1,5.9,5.5,7,6.7l1.7-5.3c-1-1.2-4.6-4.6-7-6.7L-84.1,164.7z"/>
			<path id="path10051-9-8-4-7" d="M-116.9,303.3l-2.1,6.7c-1.2-1.2-4.6-4.5-7-6.7l2.1-6.7C-121.5,298.8-118.1,302.2-116.9,303.3
				L-116.9,303.3z"/>
		</g>
		<g id="Blue_Trails">
			<path id="path3875-9-8-8-6-8-2-74" class="st0" d="M-27.1,293.7c-1.9-1.9-7.9-7.7-11.8-11.3l3.6-12c4,3.6,10,9.4,11.8,11.3
				L-27.1,293.7z"/>
			<path id="path3873-0-9-2-0-8-8-7" class="st0" d="M-22.6,278.7c-1.9-1.9-7.8-7.7-11.8-11.3l3.6-11.9c4,3.6,10,9.4,11.8,11.3
				L-22.6,278.7z"/>
			<path id="path9747-3-3-7-8" class="st0" d="M-42.6,283.8c-1.7-1.8-7-6.9-10.6-10.1l3.2-10.9c3.6,3.2,9,8.5,10.6,10.1L-42.6,283.8
				z"/>
			<path id="path9749-0-3-7-3" class="st0" d="M-38.1,268.9c-1.7-1.7-7-6.9-10.6-10.1l3.2-10.6c3.6,3.2,9,8.3,10.6,10.1L-38.1,268.9
				z"/>
			<path id="path9901-6-6-9-5" class="st0" d="M-60.2,281.7c-1.5-1.5-6.4-6.3-9.6-9.1l2.9-9.7c3.2,2.9,8.1,7.6,9.6,9.1L-60.2,281.7z
				"/>
			<path id="path9903-9-8-9-5" class="st0" d="M-55.7,266.7c-1.5-1.5-6.4-6.3-9.6-9.1l2.9-9.6c3.2,2.8,8.1,7.6,9.6,9.1L-55.7,266.7z
				"/>
			<path id="path9945-9-6-0-6" class="st0" d="M-78.6,286.7c-1.4-1.4-5.8-5.6-8.6-8.2l2.7-8.8c2.8,2.6,7.3,6.8,8.6,8.2L-78.6,286.7z
				"/>
			<path id="path9947-3-5-4-7" class="st0" d="M-74.3,271.7c-1.4-1.4-5.8-5.6-8.6-8.2l2.6-8.7c2.8,2.6,7.3,6.8,8.6,8.2L-74.3,271.7z
				"/>
			<path id="path9989-8-1-8-0" class="st0" d="M-96.3,289.9c-1.3-1.3-5.1-5.1-7.8-7.4l2.4-7.9c2.6,2.3,6.5,6.2,7.7,7.4L-96.3,289.9z
				"/>
			<path id="path9991-5-0-5-0" class="st0" d="M-91.8,275c-1.3-1.3-5.1-5-7.7-7.4l2.3-7.8c2.6,2.3,6.5,6.2,7.7,7.3L-91.8,275z"/>
			<path id="path10033-8-9-7-0" class="st0" d="M-114.6,295.8c-1.2-1.2-4.6-4.6-7-6.7l2.2-7.2c2.3,2.1,5.9,5.5,6.9,6.7L-114.6,295.8
				z"/>
			<path id="path10035-4-3-4-5" class="st0" d="M-110.1,280.9c-1.2-1.2-4.6-4.5-6.9-6.7l2.1-7c2.3,2.1,5.9,5.5,6.9,6.7L-110.1,280.9
				z"/>
		</g>
		<g id="Yellow_Trails_00000117644161084734655930000002923902999210281624_">
			<path id="path3851-8-7-06-8-2-6-1" class="st1" d="M-10.4,238c-1.9-1.9-7.8-7.7-11.8-11.3l-5.3,17.6c4.1,3.6,10.1,9.5,11.9,11.4
				L-10.4,238z"/>
			<path id="path9753-9-8-6-3" class="st1" d="M-26.3,229.5c-1.7-1.8-7-6.9-10.6-10.1l-4.7,15.8c3.6,3.3,9.1,8.6,10.6,10.3
				L-26.3,229.5z"/>
			<path id="path9907-2-9-5-4" class="st1" d="M-44.3,228.7c-1.5-1.5-6.4-6.3-9.6-9.1l-4.2,14.2c3.3,2.9,8.2,7.7,9.6,9.2
				L-44.3,228.7z"/>
			<path id="path9951-80-6-7-5" class="st1" d="M-63.1,234.9c-1.4-1.4-5.8-5.6-8.6-8.2l-3.8,12.8c2.9,2.7,7.3,6.9,8.7,8.3
				L-63.1,234.9z"/>
			<path id="path9995-6-8-3-25" class="st1" d="M-81.1,239.3c-1.3-1.3-5.1-5.1-7.7-7.4l-3.5,11.5c2.7,2.4,6.7,6.3,7.8,7.4
				L-81.1,239.3z"/>
			<path id="path10039-2-2-9-66" class="st1" d="M-99.8,246c-1.2-1.2-4.6-4.6-6.9-6.7l-3.1,10.4c2.4,2.2,6,5.6,7,6.7L-99.8,246z"/>
		</g>
		<g id="Green_Trails">
			<path id="path3847-0-4-46-8-8-7-4" class="st2" d="M-12.9,195.7c4,3.6,9.9,9.2,11.8,11.3l-4.2,14.1c-1.8-1.9-7.7-7.7-11.8-11.3
				L-12.9,195.7z"/>
			<path id="path3845-9-3-2-9-8-0-0" class="st2" d="M-11.9,192.2l4.5-14.7c4,3.6,10,9.5,11.8,11.4l-4.5,14.6
				C-2,201.6-8,195.8-11.9,192.2L-11.9,192.2z"/>
			<path id="path3843-6-0-8-7-6-1-4" class="st2" d="M-2.2,160.1c4,3.6,10,9.4,11.8,11.3l-4.2,14.1c-1.8-1.9-7.8-7.7-11.8-11.4
				L-2.2,160.1z"/>
			<path id="path9757-5-4-5-4" class="st2" d="M-27.6,188.2c3.6,3.2,9,8.3,10.6,10.1l-3.7,12.7c-1.7-1.8-6.9-6.9-10.6-10.1
				L-27.6,188.2z"/>
			<path id="path9759-4-7-2-6" class="st2" d="M-26.1,183.4l4-13.3c3.6,3.2,9,8.5,10.6,10.3l-4,13.2
				C-17.2,191.7-22.6,186.6-26.1,183.4L-26.1,183.4z"/>
			<path id="path9761-0-6-0-1" class="st2" d="M-16.8,152.6c3.6,3.2,9,8.5,10.6,10.1l-3.8,12.7c-1.7-1.7-7-6.9-10.6-10.3
				L-16.8,152.6z"/>
			<path id="path9911-7-3-0-6" class="st2" d="M-44.4,188.2c3.2,2.8,8.1,7.6,9.6,9.1l-3.3,11.4c-1.4-1.5-6.3-6.2-9.5-9.1
				L-44.4,188.2z"/>
			<path id="path9913-7-3-3-6" class="st2" d="M-42.5,182.1l3.6-12c3.2,2.9,8.1,7.7,9.6,9.2l-3.6,11.9
				C-34.5,189.7-39.4,184.9-42.5,182.1L-42.5,182.1z"/>
			<path id="path9915-54-3-7-9" class="st2" d="M-33.6,152.6c3.2,2.9,8.1,7.6,9.6,9.1l-3.5,11.4c-1.5-1.5-6.4-6.3-9.6-9.2
				L-33.6,152.6z"/>
			<path id="path9955-1-8-0-6" class="st2" d="M-62.2,195.3c2.8,2.6,7.2,6.8,8.6,8.2l-3.1,10.3c-1.3-1.4-5.6-5.6-8.6-8.2
				L-62.2,195.3z"/>
			<path id="path9957-0-7-9-4" class="st2" d="M-60,187.9l3.2-10.8c2.9,2.7,7.3,6.9,8.6,8.3l-3.2,10.6
				C-52.9,194.7-57.2,190.4-60,187.9L-60,187.9z"/>
			<path id="path9959-5-9-7-3" class="st2" d="M-51.6,159.5c2.9,2.6,7.3,6.8,8.6,8.2l-3.1,10.3c-1.3-1.4-5.8-5.6-8.6-8.3
				L-51.6,159.5z"/>
			<path id="path9999-6-0-3-3" class="st2" d="M-79.4,200.3c2.6,2.3,6.5,6.2,7.8,7.3l-2.7,9.2c-1.2-1.3-5.1-5-7.7-7.4L-79.4,200.3z"
				/>
			<path id="path10001-2-8-7-8" class="st2" d="M-76.8,191.8l2.9-9.7c2.6,2.4,6.5,6.2,7.8,7.4l-2.9,9.6
				C-70.3,198-74.3,194.1-76.8,191.8L-76.8,191.8z"/>
			<path id="path10003-5-6-9-5" class="st2" d="M-68.6,164.7c2.6,2.3,6.5,6.2,7.8,7.4l-2.8,9.2c-1.2-1.3-5.1-5.1-7.8-7.4
				L-68.6,164.7z"/>
			<path id="path10043-0-3-9-7" class="st2" d="M-97.1,207.7c2.3,2.1,5.9,5.5,6.9,6.7l-2.4,8.3c-1-1.2-4.6-4.5-6.9-6.7L-97.1,207.7z
				"/>
			<path id="path10045-6-0-8-3" class="st2" d="M-94.4,198.4l2.6-8.7c2.3,2.2,5.9,5.6,6.9,6.7l-2.6,8.7
				C-88.5,203.9-92.1,200.6-94.4,198.4L-94.4,198.4z"/>
			<path id="path10047-2-1-8-4" class="st2" d="M-86.4,172.1c2.3,2.1,5.9,5.5,7,6.7l-2.4,8.3c-1-1.2-4.6-4.6-6.9-6.7L-86.4,172.1z"
				/>
		</g>
	</g>
	<g id="Pwny" transform="matrix(1.0694821,0,0,1.0634354,-609.99986,-307.72031)">
		<path id="Base" d="M691.9,441.9l-2-6.3l-42.5,10.5c-0.5-6.7,1.8-9.6,4-14.1c-7.3-3.6-20.6-0.2-25.8,4.5l-3.8-0.2
			c0.7-6-0.6-11.9-3.1-16.6c-13.5,3.9-19.9,12.7-24.2,19.9c-3.6-0.3-6.9-0.3-10,0.2L542,581.6l12.7-7c13.5,10.7,31.8,14.6,48.6,17.7
			c16.5-8.3,34.1-16.8,50.3-33c-13.8-11.2-32.5-19.2-28.3-44c6.5,5.9,9.7,5.8,13.9,18.7c9.7,1.8,21.3,3,31.5,3.1
			c1.7-2.4,10.9-18.2,9.1-26.8c-2.5-11.8-18.8-27.4-18.8-27.4c-3-4.5-2.6-11.2-0.6-16.9L691.9,441.9z"/>
		<path id="Neck_Bottom" class="st0" d="M624.1,543.8c-2.8,3.7-6.3,6.7-10.3,9.1l-4.3-2.3l-18.3,1.2l-3.9,5.3
			c-12.6-1.9-24.2-7.8-32.9-16.9l-8.6,28.5l9.2-5.6v0.1c12.9,11.1,29.1,17.4,46.1,18.1c13.8-5.3,26.6-12.9,37.6-22.7
			C633,554.5,628,549.6,624.1,543.8z"/>
		<path id="Neck_Middle" class="st1" d="M609.5,530.8c-0.2-0.2-0.9-1.4-1.1-1.7l-17.2,1.2l-1.5,1.4c-11.4-1.5-21.3-8.3-26.6-18.4v0
			c0,0-0.1-0.1-0.1-0.1c-0.1-0.2-0.2-0.4-0.3-0.6l-6.1,20.1c3.2,3,6.8,5.6,10.6,7.8c5.5,3.1,11.4,5.3,17.6,6.5
			c1.3,0.2,2.7,0.5,4.1,0.6l2.2-3l17.2-1.2l2.6,1.2c3.5-1.7,6.8-3.9,9.6-6.6c-1.6-3-2.8-6.1-3.8-9.4
			C614.4,529.5,612,530.2,609.5,530.8z"/>
		<path id="Neck_Top" class="st2" d="M600.9,510.1c-1.4,0-2.8-0.1-4.1-0.2c-0.5-0.1-0.9-0.1-1.4-0.2c0,0,0.1,0.1,0.1,0.1l-0.2-0.1
			c0,0,0.1,0,0.1,0c0,0,0.1,0,0.1,0c-6.1-3.3-11.4-7.8-15.4-13.4c-3.7-11.2-2.9-23.3,2.1-33.9c0.3-0.6,0.6-1.2,0.9-1.8
			c0.3-0.6,0.7-1.2,1-1.8c-0.5-2.9-1.4-5.7-2.5-8.4l-15,49.7c2.3,5.8,5.7,11.1,10.1,15.6l0.6,0.6c0.2,0.2,0.5,0.5,0.8,0.7
			c0.5,0.5,1,0.9,1.5,1.3c3,2.6,6.4,4.8,9.9,6.5l2.3-2.2l16.8-1.2l1.8,2.9c1.8-0.5,3.6-1.1,5.3-1.7c-0.5-5.3,0.2-10.6,2.1-15.6
			C612.4,509,606.7,510.1,600.9,510.1z"/>
		<path id="Head" class="st3" d="M652,487.8c-0.9-1.5-2.9-4.7-2.9-4.7c-0.8-4.7-0.9-9.4-0.3-14.1c-0.9-0.7-1.9-1.4-2.8-2.2l1.2-1
			c0.7-0.6,2.2-1.7,2.9-2.3c6.7-5.3,19.3-12.7,26-18c-11.1,3.3-27.9,8.1-39,11.4c0-6.2,1.6-12.2,4.7-17.6
			c-6.9,0.4-13.2,3.9-17.1,9.6c-0.7,0-1.5,0-2.2,0c-2.7,0-5.4,0.2-8,0.6c1.1-6.3,1.2-12.7,0.1-19c-1.2,0.8-2.2,1.7-3.3,2.6
			c-1.5,1.3-2.8,2.7-4,4.2c-0.9,1.1-1.8,2.3-2.5,3.6c-2.1,3.4-3.7,7.1-4.5,11c-2.3,0.1-4.5,0.4-6.8,0.8c-3.7,5.5-6.1,11.7-7.1,18.2
			c1.4,4.7,0.5,12.3,1,17.2c4.3,9.8,16,14.4,16.6,14.8c2.3-0.3,5.2-0.6,8-0.6c1.6,0,3.2,0.1,4.6,0.3c12.3,2,22.6,10.3,27.2,21.7
			c5,2.5,10.4,3.7,15.9,3.7c1.4,0,2.9-0.1,4.3-0.3c1.8-3.9,5.3-8.2,5.3-12.5c-0.3-7.1-3.7-10.1-8.2-14.9
			C657.8,496.4,654.7,492.2,652,487.8z"/>
		<path id="Nose" class="st4" d="M654.2,517.2c-0.8-0.4-3.2,1.1-3.2,1.1l4.6,2.9l3.7,0.6C659.2,521.2,655,517.6,654.2,517.2
			L654.2,517.2z"/>
		<path id="Eye" class="st4" d="M622.8,479.3c-2.8-2.4-9.9-2.5-9.9-2.5l5.4,6.3l9.2,2.9C627.6,485.9,625.7,481.7,622.8,479.3
			L622.8,479.3z"/>
	</g>
</g>
</svg>
